<?xml version="1.0" encoding="UTF-8"?>
<svg id="_Слой_2" data-name="Слой 2" xmlns="http://www.w3.org/2000/svg" viewBox="0 0 139.01 119.28">
  <defs>
    <style>
      .cls-1 {
        fill: #162c4a;
      }
    </style>
  </defs>
  <g id="_Слой_1-2" data-name="Слой 1">
    <path class="cls-1" d="M75.03,33l-.24-28.85c4.16.38,7.66,2.87,10.18,6.09,3.19-2.17,7.06-3.43,10.96-3.15.46.03,5.05.65,3.64,1.73-1,.76-3.61,1.62-4.91,2.38-15.32,9.05-14.42,35.92,5,39.34,13.33,2.34,23.91-11.81,16.25-23.34-5.44-8.19-18.67-5.79-15.94,5.07l1.59-1.7c6.6-4.08,11.78,4.97,6.84,10.01-5.45,5.57-14.83,1.02-16.86-5.63-2.95-9.64,4.75-19.2,14.42-20.04,20.25-1.75,27.97,22.18,15.76,36.29-9.52,11-24.4,10.64-36.42,4.04-.42,6.55-.21,13.12-.24,19.69-.04,9-1.02,18.84,5.13,26.39,13.22,16.21,43.57,5.44,38.12-15.87-2.17-8.49-12.28-14.67-20.51-10.53-6.6,3.32-8.09,15.74.73,16.74-2.37-2.65-1.44-9.18,2.38-9.97,10.14-2.07,13.16,12.81,3.82,17.51-15.21,7.65-28.16-9.79-20.26-23.93,6.12-10.94,16.47-9.35,25.87-14.71,3.52-2.01,6.2-4.73,7.98-8.4l.82-.33c2.42,2.69,2.54,6.95,1.56,10.3-.72,2.44-2.4,4.46-3.35,6.79,3.44,1.28,6.36,5.27,8.11,8.4,10.46,18.68-3.67,39.65-23.64,41.72-21.71,2.25-37.79-13.13-38.31-34.54-8.77-11.26-24.86-17.42-38.01-9.75-8.47,4.94-11.29,14.76-8.15,23.88,3.6,10.48,18.14,15.59,25.8,6.48,4.74-5.65,4.1-16.28-5.5-13.94,1.39,3.28,1.66,7.52-1.98,9.39-4.83,2.48-9.49-2.77-9.97-7.34-1.65-15.89,22.6-17.22,28.86-3.19,5.09,11.4-2.68,24.16-14.04,27.61-12.84,3.9-26.39-1.87-32.09-13.99l-6.76,14.14c-2.62.42-5.26.22-7.91.29-1.18.03-2.51.63-3.77-.03l.17-1.13C20.82,78.8,38.53,39.15,58.41.61l.84-.61c.18.04.58.77.72,1.01,5.52,9.84,9.62,21.05,14.51,31.21.14.29.13.72.56.79ZM73.08,69.19v-10.15c0-.42-3.52-6.41-4.04-7.45-2.86-5.77-5.82-11.58-8.47-17.44-1.52-3.37-2.51-7.13-4.6-10.19l-18.83,38.75,7.71-1.83c9.93-.92,20.27,2.45,28.23,8.31Z"/>
  </g>
</svg>