<?xml version="1.0" encoding="UTF-8"?>
<svg id="_Слой_2" data-name="Слой 2" xmlns="http://www.w3.org/2000/svg" viewBox="0 0 327.34 119.28">
  <defs>
    <style>
      .cls-1 {
        fill: #162c4a;
      }
    </style>
  </defs>
  <g id="_Слой_1-2" data-name="Слой 1">
    <g>
      <path class="cls-1" d="M75.03,33l-.24-28.85c4.16.38,7.66,2.87,10.18,6.09,3.19-2.17,7.06-3.43,10.96-3.15.46.03,5.05.65,3.64,1.73-1,.76-3.61,1.62-4.91,2.38-15.32,9.05-14.42,35.92,5,39.34,13.33,2.34,23.91-11.81,16.25-23.34-5.44-8.19-18.67-5.79-15.94,5.07l1.59-1.7c6.6-4.08,11.78,4.97,6.84,10.01-5.45,5.57-14.83,1.02-16.86-5.63-2.95-9.64,4.75-19.2,14.42-20.04,20.25-1.75,27.97,22.18,15.76,36.29-9.52,11-24.4,10.64-36.42,4.04-.42,6.55-.21,13.12-.24,19.69-.04,9-1.02,18.84,5.13,26.39,13.22,16.21,43.57,5.44,38.12-15.87-2.17-8.49-12.28-14.67-20.51-10.53-6.6,3.32-8.09,15.74.73,16.74-2.37-2.65-1.44-9.18,2.38-9.97,10.14-2.07,13.16,12.81,3.82,17.51-15.21,7.65-28.16-9.79-20.26-23.93,6.12-10.94,16.47-9.35,25.87-14.71,3.52-2.01,6.2-4.73,7.98-8.4l.82-.33c2.42,2.69,2.54,6.95,1.56,10.3-.72,2.44-2.4,4.46-3.35,6.79,3.44,1.28,6.36,5.27,8.11,8.4,10.46,18.68-3.67,39.65-23.64,41.72-21.71,2.25-37.79-13.13-38.31-34.54-8.77-11.26-24.86-17.42-38.01-9.75-8.47,4.94-11.29,14.76-8.15,23.88,3.6,10.48,18.14,15.59,25.8,6.48,4.74-5.65,4.1-16.28-5.5-13.94,1.39,3.28,1.66,7.52-1.98,9.39-4.83,2.48-9.49-2.77-9.97-7.34-1.65-15.89,22.6-17.22,28.86-3.19,5.09,11.4-2.68,24.16-14.04,27.61-12.84,3.9-26.39-1.87-32.09-13.99l-6.76,14.14c-2.62.42-5.26.22-7.91.29-1.18.03-2.51.63-3.77-.03l.17-1.13C20.82,78.8,38.53,39.15,58.41.61l.84-.61c.18.04.58.77.72,1.01,5.52,9.84,9.62,21.05,14.51,31.21.14.29.13.72.56.79ZM73.08,69.19v-10.15c0-.42-3.52-6.41-4.04-7.45-2.86-5.77-5.82-11.58-8.47-17.44-1.52-3.37-2.51-7.13-4.6-10.19l-18.83,38.75,7.71-1.83c9.93-.92,20.27,2.45,28.23,8.31Z"/>
      <g>
        <path class="cls-1" d="M202.09,52.55h5.56l-16.85-37.1h-5.25l-16.8,37.1h5.46l4.08-9.27h19.73l4.08,9.27ZM180.15,39.03l8-18.21,8,18.21h-16Z"/>
        <path class="cls-1" d="M231.93,40.73c-.65-.95-1.5-1.7-2.54-2.23-1.04-.53-2.2-.94-3.47-1.25-1.27-.3-2.54-.55-3.82-.74-1.27-.19-2.43-.43-3.47-.72-1.04-.28-1.89-.68-2.54-1.19-.65-.51-.98-1.25-.98-2.2,0-1.13.55-2.06,1.64-2.78,1.09-.72,2.76-1.09,4.98-1.09,1.38,0,2.76.16,4.13.48,1.38.32,2.7.9,3.98,1.75l2.17-4.03c-1.2-.81-2.75-1.44-4.64-1.88-1.89-.44-3.75-.66-5.59-.66-2.4,0-4.48.34-6.23,1.03-1.75.69-3.1,1.67-4.05,2.94s-1.43,2.76-1.43,4.45.32,2.92.95,3.9c.64.97,1.48,1.73,2.54,2.28,1.06.55,2.23.97,3.5,1.27,1.27.3,2.54.55,3.82.74,1.27.19,2.43.42,3.47.66,1.04.25,1.88.62,2.52,1.11.64.5.95,1.18.95,2.07,0,1.2-.52,2.14-1.56,2.81-1.04.67-2.75,1.01-5.11,1.01-1.84,0-3.64-.28-5.41-.85-1.77-.56-3.25-1.25-4.45-2.07l-2.12,4.03c1.2.92,2.85,1.7,4.96,2.33,2.1.64,4.32.95,6.65.95,2.51,0,4.66-.34,6.47-1.03,1.8-.69,3.2-1.65,4.19-2.89.99-1.24,1.48-2.7,1.48-4.4,0-1.59-.33-2.86-.98-3.82Z"/>
        <path class="cls-1" d="M263.13,29.55c-.99-1.8-2.36-3.14-4.11-4.03-1.75-.88-3.77-1.33-6.07-1.33-2.54,0-4.77.51-6.68,1.54-1.32.71-2.39,1.63-3.23,2.72v-15.23h-5.09v39.33h5.09v-14.47c0-2.05.36-3.76,1.09-5.14s1.76-2.42,3.1-3.13c1.34-.71,2.92-1.06,4.72-1.06,2.4,0,4.27.69,5.59,2.07s1.99,3.43,1.99,6.15v15.58h5.09v-16.17c0-2.76-.5-5.04-1.48-6.84Z"/>
        <path class="cls-1" d="M291.12,24.46l-9.71,22.45-9.8-22.45h-5.3l12.4,28.02-.89,1.98c-.71,1.62-1.47,2.76-2.28,3.39-.81.64-1.84.95-3.07.95-.95,0-1.86-.18-2.7-.53-.85-.35-1.62-.87-2.33-1.54l-2.17,3.82c.92.85,2.01,1.49,3.29,1.93,1.27.44,2.58.66,3.92.66,1.45,0,2.77-.24,3.97-.72,1.2-.48,2.31-1.28,3.31-2.41,1.01-1.13,1.92-2.69,2.73-4.66l13.62-30.9h-4.98Z"/>
        <polygon class="cls-1" points="314.36 36.07 326.18 24.46 320.03 24.46 304.71 38.47 304.71 13.22 299.62 13.22 299.62 52.55 304.71 52.55 304.71 44.87 310.52 39.44 321.09 52.55 327.34 52.55 314.36 36.07"/>
      </g>
      <g>
        <path class="cls-1" d="M199.88,87.9c-.95-1.43-2.24-2.52-3.87-3.26-.54-.25-1.12-.44-1.72-.6.03-.01.05-.02.08-.03,1.52-.74,2.73-1.8,3.63-3.18s1.35-3.07,1.35-5.09c0-2.97-1.15-5.31-3.45-7.02-2.3-1.71-5.58-2.57-9.86-2.57h-16.64v37.1h17.7c4.7,0,8.24-.87,10.63-2.62,2.38-1.75,3.58-4.21,3.58-7.39,0-2.12-.48-3.9-1.43-5.33ZM185.57,70.43c2.68,0,4.77.5,6.25,1.48,1.48.99,2.23,2.47,2.23,4.45s-.74,3.46-2.23,4.45c-1.48.99-3.57,1.48-6.25,1.48h-10.86v-11.87h10.86ZM193.63,97.46c-1.56.99-3.8,1.48-6.73,1.48h-12.19v-12.35h12.19c2.93,0,5.18.5,6.73,1.48,1.55.99,2.33,2.56,2.33,4.72s-.78,3.68-2.33,4.66Z"/>
        <g>
          <path class="cls-1" d="M209.98,69.74c1.02,0,1.86-.33,2.49-.98.64-.65.95-1.46.95-2.41s-.33-1.69-.98-2.31c-.65-.62-1.48-.93-2.46-.93s-1.81.32-2.46.95c-.65.64-.98,1.43-.98,2.38s.33,1.7.98,2.33c.65.64,1.48.95,2.46.95Z"/>
          <rect class="cls-1" x="207.43" y="75.15" width="5.09" height="28.09"/>
        </g>
        <rect class="cls-1" x="220.12" y="63.91" width="5.09" height="39.33"/>
        <g>
          <path class="cls-1" d="M235.39,69.74c1.03,0,1.86-.33,2.49-.98.63-.65.95-1.46.95-2.41s-.33-1.69-.98-2.31c-.65-.62-1.48-.93-2.46-.93s-1.81.32-2.46.95c-.65.64-.98,1.43-.98,2.38s.33,1.7.98,2.33c.65.64,1.48.95,2.46.95Z"/>
          <rect class="cls-1" x="232.84" y="75.15" width="5.09" height="28.09"/>
        </g>
        <path class="cls-1" d="M290.74,80.24c-.97-1.8-2.32-3.14-4.05-4.03-1.73-.88-3.73-1.33-5.99-1.33-2.83,0-5.3.65-7.42,1.96-1.42.88-2.55,1.95-3.4,3.21-.69-1.31-1.62-2.38-2.8-3.18-1.94-1.32-4.26-1.99-6.94-1.99-2.44,0-4.58.51-6.41,1.54-1.36.76-2.45,1.74-3.29,2.94v-4.21h-4.88v28.09h5.09v-14.47c0-2.05.35-3.76,1.06-5.14s1.7-2.42,2.97-3.13c1.27-.71,2.74-1.06,4.4-1.06,2.33,0,4.12.69,5.38,2.07,1.25,1.38,1.88,3.43,1.88,6.15v15.58h5.09v-14.47c0-2.05.34-3.76,1.03-5.14.69-1.38,1.67-2.42,2.94-3.13,1.27-.71,2.76-1.06,4.45-1.06,2.3,0,4.08.69,5.35,2.07,1.27,1.38,1.91,3.43,1.91,6.15v15.58h5.09v-16.17c0-2.76-.49-5.04-1.46-6.84Z"/>
      </g>
    </g>
  </g>
</svg>